<svg id="Layer_1" data-name="Layer 1" xmlns="http://www.w3.org/2000/svg" viewBox="0 0 172.508 304.035">
  <title>logo</title>
  <path d="M289.2,375.165l-8.1-1.08,12.419-149.56,8.909-7.019-76.4-70.191,5.129-9.179s-2.16-7.289-14.578-8.1-16.2,7.559-16.2,7.559l5.129,9.719-75.32,71,8.369,6.21,12.418,149.83-7.019.54,7.559,16.738-21.6,28.886v13.5H302.426V420.789l-21.868-28.616Zm-80.449-14.308c-.81,0-48.324,7.019-48.324,7.019L149.356,231.814l58.852-9.179s1.35,138.222.54,138.222m15.118,0V222.365l58.582,9.179L271.38,368.416Z" transform="translate(-129.918 -129.982)"/>
</svg>
